# AST/ASF file generated using VICON BodyLanguage
# -----------------------------------------------
:version 1.10
:name VICON
:units
  mass 1.0
  length 0.45
  angle deg
:documentation
   .ast/.asf automatically generated from VICON data using
   VICON BodyBuilder and BodyLanguage model FoxedUp or BRILLIANT.MOD
:root
   order TX TY TZ RX RY RZ
   axis XYZ
   position 0 0 0  
   orientation 0 0 0 
:bonedata
  begin
     id 1 
     name lhipjoint
     direction 0.499407 -0.589134 0.635228 
     length 2.99786 
     axis 0 0 0  XYZ
  end
  begin
     id 2 
     name lfemur
     direction 0.34202 -0.939693 0  
     length 6.89561  
     axis 0 0 20  XYZ
    dof rx ry rz
    limits (-160.0 20.0)
           (-70.0 70.0)
           (-60.0 70.0)
  end
  begin
     id 3 
     name ltibia
     direction 0.34202 -0.939693 0   
     length 8.00494   
     axis 0 0 20   XYZ
    dof rx
    limits (-10.0 170.0)
  end
  begin
     id 4 
     name lfoot
     direction 0.0680929 -0.194353 0.978565   
     length 2.06695   
     axis -90 7.62852e-016 20   XYZ
    dof rx rz
    limits (-45.0 90.0)
           (-70.0 20.0)
  end
  begin
     id 5 
     name ltoes
     direction 1.5346e-011 -4.21731e-011 1   
     length 1.04539   
     axis -90 7.62852e-016 20   XYZ
    dof rx
    limits (-90.0 20.0)
  end
  begin
     id 6 
     name rhipjoint
     direction -0.347526 -0.63762 0.687508   
     length 2.76989  
     axis 0 0 0  XYZ 
  end
  begin
     id 7 
     name rfemur
     direction -0.34202 -0.939693 0   
     length 6.97892   
     axis 0 0 -20   XYZ
    dof rx ry rz
    limits (-160.0 20.0)
           (-70.0 70.0)
           (-70.0 60.0)
  end
  begin
     id 8 
     name rtibia
     direction -0.34202 -0.939693 0   
     length 7.77056   
     axis 0 0 -20   XYZ
    dof rx
    limits (-10.0 170.0)
 end
 begin
     id 9 
     name rfoot
     direction -0.102685 -0.282124 0.953867   
     length 2.15099  
     axis -90 -7.62852e-016 -20   XYZ
    dof rx rz
    limits (-45.0 90.0)
           (-20.0 70.0)
  end
  begin
     id 10 
     name rtoes
     direction -0.000106751 -0.00118973 0.999999   
     length 1.0765   
     axis -90 -7.62852e-016 -20   XYZ
    dof rx
    limits (-90.0 20.0)
  end
  begin
     id 11 
     name lowerback
     direction -0.0190651 0.988667 0.148909   
     length 1.90627   
     axis 0 0 0   XYZ
    dof rx ry rz
    limits (-20.0 45.0)
           (-30.0 30.0)
           (-30.0 30.0)
  end
  begin
     id 12 
     name upperback
     direction -0.0180344 0.995767 -0.0901298   
     length 1.88167   
     axis 0 0 0   XYZ
    dof rx ry rz
    limits (-20.0 45.0)
           (-30.0 30.0)
           (-30.0 30.0)
  end
  begin
     id 13 
     name thorax
     direction -0.00329861 0.986394 -0.164366   
     length 1.91528   
     axis 0 0 0   XYZ
    dof rx ry rz
    limits (-20.0 45.0)
           (-30.0 30.0)
           (-30.0 30.0)
  end
  begin
     id 14 
     name lowerneck
     direction -0.0177752 0.978637 -0.204826   
     length 2.09812   
     axis 0 0 0   XYZ
    dof rx ry rz
    limits (-20.0 45.0)
           (-30.0 30.0)
           (-30.0 30.0)
  end
  begin
     id 15 
     name upperneck
     direction 0.108032 0.994134 0.00511541   
     length 2.11937   
     axis 0 0 0   XYZ
    dof rx ry rz
    limits (-20.0 45.0)
           (-30.0 30.0)
           (-30.0 30.0)
  end
  begin
     id 16
     name head
     direction 0.0423659 0.998938 0.0181058  
     length 2.14816  
     axis 0 0 0   XYZ
    dof rx ry rz
    limits (-20.0 45.0)
           (-30.0 30.0)
           (-30.0 30.0)
  end
  begin
     id 17 
     name lclavicle
     direction 0.869509 0.396908 0.293968  
     length 4.73713  
     axis 0 0 0   XYZ
    dof ry rz
    limits (-20.0 10.0)
           (0.0 20.0)
  end
  begin
     id 18 
     name lhumerus
     direction 1 -4.49e-011 3.63829e-027   
     length 4.72096   
     axis 180 -30 -90   XYZ
    dof rx ry rz
    limits (-60.0 90.0)
           (-90.0 90.0)
           (-90.0 90.0)
  end
  begin
     id 19
     name lradius
     direction 1 -4.48932e-011 7.19196e-027   
     length 3.18148   
     axis 180 -30 -90   XYZ
    dof rx
    limits (-10.0 170.0)
  end
  begin
     id 20
     name lwrist
     direction 1 -4.48995e-011 1.85462e-026   
     length 1.59074   
     axis -1.20349e-014 90 90   XYZ
    dof ry
    limits (-180.0 0.0)
 end
  begin
     id 21 
     name lhand
     direction 1 -4.48943e-011 3.70924e-026   
     length 0.848715   
     axis -2.36681e-014 90 90   XYZ
    dof rx rz
    limits (-90.0 90.0)
           (-45.0 45.0)
  end
  begin
     id 22 
     name lfingers
     direction 1 -4.48949e-011 7.41849e-026   
     length 0.684256   
     axis -4.73363e-014 90 90   XYZ
    dof rx
    limits (0.0 90.0)
  end
  begin
     id 23
     name lthumb
     direction 0.707107 -6.35018e-011 0.707107   
     length 0.982458   
     axis -90 45 2.85299e-015   XYZ
    dof rx rz
    limits (-45.0 45.0)
           (-45.0 45.0)
  end
  begin
     id 24 
     name rclavicle
     direction -0.923214 0.372787 0.0932992   
     length 4.28107  
     axis 0 0 0   XYZ 
    dof ry rz
    limits (-10.0 20.0)
           (-20.0 0.0)
  end
  begin
     id 25 
     name rhumerus
     direction -1 -4.48968e-011 6.59881e-018  
     length 4.76918   
     axis 180 30 90   XYZ
    dof rx ry rz
    limits (-90.0 60.0)
           (-90.0 90.0)
           (-90.0 90.0)
  end
  begin
     id 26 
     name rradius
     direction -1 0.000264575 -0.000152753   
     length 3.36438   
     axis 180 30 90   XYZ
    dof rx
    limits (-10.0 170.0)
  end
  begin
     id 27 
     name rwrist
     direction -1 -4.86632e-005 -0.00030086   
     length 1.68219   
     axis -1.20349e-014 -90 -90   XYZ
    dof ry
    limits (-180.0 0.0)
  end
  begin
     id 28
     name rhand
     direction -1 -4.48915e-011 3.70924e-026   
     length 0.767694   
     axis -2.36681e-014 -90 -90   XYZ
    dof rx rz
    limits (-90.0 90.0)
           (-45.0 45.0)
  end
  begin
     id 29
     name rfingers
     direction -1 -4.49015e-011 7.41849e-026   
     length 0.618935   
     axis -4.73363e-014 -90 -90   XYZ
    dof rx
    limits (0.0 90.0)
  end
  begin
     id 30
     name rthumb
     direction -0.707107 -6.34859e-011 0.707107   
     length 0.88867   
     axis -90 -45 -2.85299e-015   XYZ
    dof rx rz
    limits (-45.0 45.0)
           (-45.0 45.0)
  end
:hierarchy
  begin
    root lhipjoint rhipjoint lowerback
    lhipjoint lfemur
    lfemur ltibia
    ltibia lfoot
    lfoot ltoes
    rhipjoint rfemur
    rfemur rtibia
    rtibia rfoot
    rfoot rtoes
    lowerback upperback
    upperback thorax
    thorax lowerneck lclavicle rclavicle
    lowerneck upperneck
    upperneck head
    lclavicle lhumerus
    lhumerus lradius
    lradius lwrist
    lwrist lhand lthumb
    lhand lfingers
    rclavicle rhumerus
    rhumerus rradius
    rradius rwrist
    rwrist rhand rthumb
    rhand rfingers
  end

#!OML:ASF C:\Documents and Settings\Administrator\Desktop\New Folder (2)\VR_Jason.ASF
:FULLY-SPECIFIED
:DEGREES
993
root -1.69559 17.9812 -0.117536 19.0254 6.77611 13.0826
lowerback -19.8379 0.62411 -2.12717
upperback 8.09928 1.96305 -2.50612
thorax 20.4856 0.791224 -0.918532
lowerneck 19.2036 -5.61994 -8.59744
upperneck 0.646033 -8.60537 12.3064
head -1.94882 -4.80806 5.74389
rclavicle -3.29983e-014 3.49861e-014
rhumerus 10.0348 -40.9015 -55.4198
rradius 87.0928
rwrist -35.5336
rhand 9.80304 14.4328
rfingers 7.12502
rthumb 34.9395 -12.1374
lclavicle -3.29983e-014 3.49861e-014
lhumerus 36.9736 0.990376 52.946
lradius 80.3481
lwrist 42.6896
lhand -5.48689 32.0436
lfingers 7.12502
lthumb 20.3255 61
rfemur -32.6456 -8.57087 13.8627
rtibia 32.4962
rfoot -17.9623 -22.287
rtoes 3.0714
lfemur -85.5277 -0.0402716 -47.9389
ltibia 82.518
lfoot 9.5576 -5.25866
ltoes -37.4082
994
root -1.69366 17.985 -0.136806 19.3958 7.14474 12.9505
lowerback -19.8719 0.642205 -2.0857
upperback 8.06703 1.97856 -2.51914
thorax 20.4671 0.804738 -0.950446
lowerneck 19.4856 -5.56941 -8.66426
upperneck 0.555128 -8.55559 12.3909
head -2.01791 -4.79492 5.79455
rclavicle 4.17448e-014 -4.13472e-014
rhumerus 9.62343 -40.7028 -55.1898
rradius 87.1468
rwrist -35.8268
rhand 9.86209 14.3347
rfingers 7.12502
rthumb 34.9955 -12.2224
lclavicle 4.17448e-014 -4.13472e-014
lhumerus 36.5653 0.77077 52.9646
lradius 80.1397
lwrist 41.7188
lhand -5.28328 31.2965
lfingers 7.12502
lthumb 20.5212 60.232
rfemur -33.0689 -8.86751 14.1146
rtibia 32.4589
rfoot -17.8833 -22.2117
rtoes 3.7586
lfemur -85.5808 -0.851272 -48.3864
ltibia 80.1262
lfoot 9.5576 -5.25866
ltoes -37.4082
995
root -1.6884 17.9748 -0.148083 19.6691 7.32369 12.7452
lowerback -19.8932 0.730445 -2.0279
upperback 8.08889 2.07642 -2.47501
thorax 20.5093 0.84944 -0.896734
lowerneck 19.5942 -5.53584 -8.77687
upperneck 0.521072 -8.53439 12.4671
head -2.03933 -4.79046 5.84147
rclavicle -1.55052e-014 2.94201e-014
rhumerus 9.6135 -40.6334 -55.1988
rradius 87.2187
rwrist -35.992
rhand 10.2599 13.9427
rfingers 7.12502
rthumb 35.3728 -12.5255
lclavicle -1.55052e-014 2.94201e-014
lhumerus 36.4368 0.513413 52.9743
lradius 79.8892
lwrist 41.012
lhand -5.46899 30.4882
lfingers 7.12502
lthumb 20.3428 59.4427
rfemur -33.4395 -9.01914 14.4111
rtibia 32.4212
rfoot -17.624 -22.3494
rtoes 4.07401
lfemur -85.7662 -1.57027 -48.3215
ltibia 77.7779
lfoot 9.5576 -5.25866
ltoes -37.4082
996
root -1.68404 17.9887 -0.165943 19.8626 7.38012 12.5471
lowerback -19.8095 0.833146 -2.05556
upperback 8.10976 2.21342 -2.42601
thorax 20.482 0.899706 -0.776185
lowerneck 19.6446 -5.48971 -8.87167
upperneck 0.455004 -8.48942 12.52
head -2.06598 -4.77215 5.87544
rclavicle 2.5842e-014 -4.53229e-014
rhumerus 9.82669 -40.5745 -55.368
rradius 87.1437
rwrist -36.0746
rhand 10.5698 13.5727
rfingers 7.12502
rthumb 35.6665 -12.825
lclavicle 2.5842e-014 -4.53229e-014
lhumerus 36.351 0.351783 53.1214
lradius 79.7042
lwrist 40.427
lhand -5.54489 30.1635
lfingers 7.12502
lthumb 20.2698 59.1259
rfemur -33.7195 -9.09036 14.6623
rtibia 32.3018
rfoot -17.3059 -22.467
rtoes 4.18634
lfemur -85.7709 -2.22501 -47.8065
ltibia 75.2514
lfoot 9.5576 -5.25866
ltoes -37.4082
997
root -1.68332 18.001 -0.185425 20.0058 7.49829 12.4147
lowerback -19.7716 0.880188 -2.15979
upperback 8.19823 2.31214 -2.43034
thorax 20.5701 0.927478 -0.686572
lowerneck 19.6111 -5.49125 -8.85216
upperneck 0.413442 -8.48184 12.5044
head -2.07562 -4.76684 5.86663
rclavicle -3.18055e-015 1.59028e-014
rhumerus 10.3968 -40.5519 -55.8703
rradius 86.8673
rwrist -35.9695
rhand 10.6559 13.6069
rfingers 7.12502
rthumb 35.7482 -12.7711
lclavicle -3.18055e-015 1.59028e-014
lhumerus 36.3141 0.308845 53.1353
lradius 79.622
lwrist 40.1159
lhand -5.40868 30.0757
lfingers 7.12502
lthumb 20.4007 59.0241
rfemur -33.8853 -9.27884 14.8774
rtibia 32.1446
rfoot -17.0763 -22.2091
rtoes 3.02812
lfemur -85.6921 -2.94086 -47.0231
ltibia 72.7091
lfoot 9.5576 -5.25866
ltoes -37.4082
998
root -1.68137 18.0104 -0.20228 20.1696 7.71683 12.2788
lowerback -19.9001 0.864028 -2.24447
upperback 8.40653 2.32781 -2.41138
thorax 20.9174 0.916869 -0.609259
lowerneck 19.2673 -5.44739 -9.02156
upperneck 0.472279 -8.43912 12.7103
head -1.99831 -4.74569 5.93972
rclavicle -3.22031e-014 5.32743e-014
rhumerus 11.2463 -40.554 -56.5739
rradius 86.664
rwrist -35.7755
rhand 10.49 13.8406
rfingers 7.12502
rthumb 35.5909 -12.5754
lclavicle -3.22031e-014 5.32743e-014
lhumerus 36.3142 0.464938 53.1102
lradius 79.6836
lwrist 40.1131
lhand -5.08421 29.9533
lfingers 7.12502
lthumb 20.7125 58.868
rfemur -33.9624 -9.35983 15.0683
rtibia 31.8538
rfoot -16.6091 -22.1752
rtoes 1.55125
lfemur -85.5976 -3.74537 -45.9546
ltibia 70.0885
lfoot 9.5576 -5.25866
ltoes -37.4082
